Source: 720p YOUTUBE
 
http://www.officialslendermanmovie.com/

"The Slender Man" is a full-length movie based on the internet-born urban legend

General
Complete name : The Slender Man 2013 WEBRip x264 AC3-OFFLiNE.mkv
Format : Matroska
Format version : Version 4 / Version 2
File size : 699 MiB
Duration : 1h 18mn
Overall bit rate mode : Variable
Overall bit rate : 1 252 Kbps
Encoded date : UTC 2013-03-13 23:24:56
Writing application : mkvmerge v6.1.0 ('Old Devil') built on Mar 2 2013 14:32:37
Writing library : libebml v1.3.0 + libmatroska v1.4.0

Video
ID : 1
Format : AVC
Format/Info : Advanced Video Codec
Format profile : High@L4.1
Format settings, CABAC : Yes
Format settings, ReFrames : 3 frames
Format settings, GOP : M=4, N=23
Codec ID : V_MPEG4/ISO/AVC
Duration : 1h 18mn
Bit rate mode : Variable
Bit rate : 1 122 Kbps
Maximum bit rate : 40.0 Mbps
Width : 720 pixels
Height : 400 pixels
Display aspect ratio : 16:9
Frame rate mode : Constant
Frame rate : 23.976 fps
Color space : YUV
Chroma subsampling : 4:2:0
Bit depth : 8 bits
Scan type : Progressive
Bits/(Pixel*Frame) : 0.162
Stream size : 614 MiB (88%)
Writing library : x264 core 130 r2273 b3065e6

Audio
ID : 2
Format : AC-3
Format/Info : Audio Coding 3
Mode extension : CM (complete main)
Format settings, Endianness : Big
Codec ID : A_AC3
Duration : 1h 18mn
Bit rate mode : Constant
Bit rate : 128 Kbps
Channel(s) : 2 channels
Channel positions : Front: L R
Sampling rate : 44.1 KHz
Bit depth : 16 bits
Compression mode : Lossy
Stream size : 71.5 MiB (10%)
Language : English
Default : Yes
Forced : No